<svg xmlns="http://www.w3.org/2000/svg" xmlns:xlink="http://www.w3.org/1999/xlink" width="40" zoomAndPan="magnify" viewBox="0 0 30 30.000001" height="40" preserveAspectRatio="xMidYMid meet" version="1.0"><defs><g/><clipPath id="d3e8be77d0"><path d="M 0.484375 0 L 28.71875 0 L 28.71875 29.03125 L 0.484375 29.03125 Z M 0.484375 0 " clip-rule="nonzero"/></clipPath><clipPath id="54b9097a4a"><path d="M 14.601562 0 C 6.804688 0 0.484375 6.5 0.484375 14.515625 C 0.484375 22.53125 6.804688 29.03125 14.601562 29.03125 C 22.398438 29.03125 28.71875 22.53125 28.71875 14.515625 C 28.71875 6.5 22.398438 0 14.601562 0 " clip-rule="nonzero"/></clipPath><clipPath id="f0eefc7c57"><path d="M 1.816406 1.742188 L 28.074219 1.742188 L 28.074219 28.003906 L 1.816406 28.003906 Z M 1.816406 1.742188 " clip-rule="nonzero"/></clipPath><clipPath id="46a989c5d8"><path d="M 2.054688 4.023438 L 28 4.023438 L 28 28.003906 L 2.054688 28.003906 Z M 2.054688 4.023438 " clip-rule="nonzero"/></clipPath></defs><g clip-path="url(#d3e8be77d0)"><g clip-path="url(#54b9097a4a)"><path fill="#ffffff" d="M 0.484375 0 L 28.71875 0 L 28.71875 29.03125 L 0.484375 29.03125 Z M 0.484375 0 " fill-opacity="1" fill-rule="nonzero"/></g></g><g clip-path="url(#f0eefc7c57)"><path fill="#ffc23c" d="M 1.816406 14.875 C 1.816406 7.621094 7.695312 1.742188 14.945312 1.742188 C 22.199219 1.742188 28.078125 7.621094 28.078125 14.875 C 28.078125 22.125 22.199219 28.003906 14.945312 28.003906 C 7.695312 28.003906 1.816406 22.125 1.816406 14.875 " fill-opacity="1" fill-rule="nonzero"/></g><g clip-path="url(#46a989c5d8)"><path fill="#100720" d="M 2.066406 17.429688 L 2.148438 17.382812 C 3.316406 16.359375 5.375 15.554688 8.320312 14.972656 L 8.988281 13.515625 C 7.902344 12.75 8.953125 10.097656 10.074219 10.15625 L 10.324219 8.757812 C 10.683594 5.769531 12.417969 4.199219 15.527344 4.046875 C 17.824219 4.089844 19.503906 5.472656 20.566406 8.195312 C 22.671875 8.054688 23.140625 8.726562 23.046875 9.457031 L 20.640625 10.066406 L 21.082031 10.929688 C 22.144531 10.738281 22.835938 12.351562 22.351562 13.621094 L 22.914062 14.613281 C 24.167969 14.773438 25.742188 15.347656 27.976562 16.515625 C 27.167969 22.992188 21.644531 28.003906 14.945312 28.003906 C 8.570312 28.003906 3.253906 23.457031 2.066406 17.429688 " fill-opacity="1" fill-rule="nonzero"/></g><path fill="#ffffff" d="M 22.761719 15.410156 C 24.488281 15.863281 26.015625 16.585938 27.347656 17.585938 C 26.738281 19.613281 25.828125 21.671875 24.613281 23.761719 C 23.660156 24.796875 22.539062 25.683594 21.296875 26.371094 L 19.175781 23.070312 C 20.230469 22.027344 21.425781 19.472656 22.761719 15.410156 " fill-opacity="1" fill-rule="nonzero"/><path fill="#ffffff" d="M 14.984375 10.855469 L 14.1875 10.046875 L 16.078125 10.121094 L 15.628906 10.972656 C 16.496094 10.261719 17.398438 10.078125 18.894531 10.304688 C 19.199219 10.539062 19.199219 11.300781 19.230469 11.648438 C 19.941406 11.992188 19.539062 14.425781 18.128906 14.6875 L 18.800781 15.480469 C 19.113281 16.085938 19.113281 16.636719 18.800781 17.136719 L 17.449219 14.660156 C 17.746094 14.550781 17.992188 14.464844 18.179688 14.40625 L 17.085938 14.203125 L 15.816406 13.472656 L 15.121094 13.929688 L 14.609375 13.417969 L 13.894531 13.609375 L 14.441406 12.742188 C 14.839844 12.554688 15.320312 12.566406 15.890625 12.773438 C 16.699219 13.34375 17.925781 13.628906 18.9375 13.285156 C 18.894531 12.589844 18.644531 12.128906 18.183594 11.914062 L 17.421875 12.148438 C 17.402344 11.828125 18.667969 11.054688 18.667969 11.054688 C 17.976562 11.078125 17.355469 11.304688 16.804688 11.730469 L 16.949219 11.023438 C 16.484375 11.261719 16.066406 11.679688 15.695312 12.273438 C 15.195312 12.082031 14.804688 12.074219 14.523438 12.246094 C 14.164062 11.441406 13.988281 11.042969 13.601562 10.988281 L 13.765625 11.765625 C 12.851562 10.890625 12.132812 10.597656 11.605469 10.886719 C 12.453125 11.183594 12.878906 11.519531 12.890625 11.898438 L 12.335938 11.636719 C 11.640625 12.457031 11.613281 13.019531 11.746094 13.320312 L 13.519531 13.097656 C 13.238281 13.355469 12.894531 13.484375 12.488281 13.488281 C 12.605469 13.597656 12.839844 13.632812 13.195312 13.59375 L 12.988281 13.828125 L 11.800781 14.0625 C 11.894531 14.3125 12.148438 14.445312 12.558594 14.457031 C 11.761719 16.289062 11.746094 17.289062 12.3125 17.910156 C 14.761719 16.285156 17.410156 16.484375 18.769531 18.71875 L 17.722656 20.242188 L 15.628906 20.683594 L 11.234375 18.421875 L 11.054688 17.53125 C 10.875 16.324219 11.441406 15.019531 11.949219 14.476562 C 11.109375 13.554688 10.542969 12.863281 11.335938 11.371094 C 11.25 10.699219 11.191406 10.136719 11.5 9.917969 C 12.792969 9.855469 13.734375 10.046875 14.984375 10.855469 " fill-opacity="1" fill-rule="evenodd"/><path fill="#ffffff" d="M 14.472656 13.65625 L 13.5 14.078125 L 13.101562 14.726562 L 14.003906 15.511719 L 12.988281 15.277344 C 12.171875 15.910156 12.257812 16.796875 12.289062 17.882812 C 13.707031 16.113281 16.445312 15.746094 18.074219 17.765625 C 18.15625 17.304688 18.003906 16.644531 17.609375 15.792969 L 16.84375 15.277344 L 15.914062 15.558594 L 16.738281 14.699219 L 16.585938 14.238281 L 15.777344 13.777344 L 15.003906 14.261719 L 14.472656 13.65625 " fill-opacity="1" fill-rule="evenodd"/><path fill="#100720" d="M 13.800781 17.695312 C 14.707031 17.476562 15.457031 17.476562 16.054688 17.695312 C 16.429688 17.945312 16.628906 18.195312 16.65625 18.4375 C 16.675781 18.890625 16.425781 19.136719 15.914062 19.179688 C 16.007812 18.78125 15.898438 18.425781 15.585938 18.117188 C 14.449219 18.058594 13.855469 17.917969 13.800781 17.695312 " fill-opacity="1" fill-rule="evenodd"/><path fill="#100720" d="M 14.871094 15.027344 L 14.183594 14.453125 C 13.898438 14.402344 13.683594 14.585938 13.726562 14.820312 L 14.089844 15.105469 L 14.308594 14.886719 L 14.878906 15.238281 L 15.222656 15.027344 L 15.6875 15.167969 L 16.078125 14.777344 L 15.734375 14.433594 L 14.871094 15.027344 " fill-opacity="1" fill-rule="evenodd"/><path fill="#100720" d="M 15.71875 13.101562 L 15.070312 13.65625 L 14.382812 13.082031 C 14.5625 13.15625 14.75 13.121094 15.050781 13.351562 C 15.222656 13.164062 15.445312 13.078125 15.71875 13.101562 " fill-opacity="1" fill-rule="evenodd"/><path fill="#ffffff" d="M 13.710938 12.648438 L 12.625 12.300781 C 12.355469 12.453125 12.347656 12.566406 12.324219 12.820312 L 13.710938 12.648438 " fill-opacity="1" fill-rule="evenodd"/><path fill="#ffffff" d="M 17.605469 12.378906 L 16.5625 12.785156 L 17.921875 12.964844 C 17.984375 12.675781 17.878906 12.480469 17.605469 12.378906 " fill-opacity="1" fill-rule="evenodd"/><path fill="#ffffff" d="M 21.140625 11.683594 C 21.6875 11.621094 21.910156 12.203125 21.804688 13.429688 L 21.140625 11.683594 " fill-opacity="1" fill-rule="evenodd"/><path fill="#100720" d="M 15.648438 12.695312 L 16.410156 13.886719 L 16.851562 14.15625 L 15.871094 12.683594 L 15.648438 12.695312 " fill-opacity="1" fill-rule="evenodd"/><path fill="#100720" d="M 16.140625 13.359375 C 16.484375 13.609375 16.835938 13.726562 17.207031 13.714844 C 16.777344 13.363281 16.523438 13.054688 16.449219 12.792969 L 15.871094 12.683594 L 15.933594 13.140625 L 16.140625 13.359375 " fill-opacity="1" fill-rule="evenodd"/><path fill="#100720" d="M 15.089844 11.480469 L 14.875 12.222656 L 15.375 12.285156 Z M 15.089844 11.480469 " fill-opacity="1" fill-rule="evenodd"/><path fill="#ffffff" d="M 10.15625 11.160156 C 9.667969 10.761719 9.035156 12.027344 9.429688 13.101562 L 10.15625 11.160156 " fill-opacity="1" fill-rule="evenodd"/><path fill="#100720" d="M 15.234375 15.617188 C 15.433594 15.886719 15.546875 16.101562 15.574219 16.257812 L 15.039062 16.242188 L 15.214844 16.042969 L 15.234375 15.617188 " fill-opacity="1" fill-rule="evenodd"/><path fill="#100720" d="M 15.648438 15.519531 C 15.019531 15.914062 14.574219 15.894531 14.308594 15.460938 C 14.566406 15.574219 15.011719 15.59375 15.648438 15.519531 " fill-opacity="1" fill-rule="evenodd"/><path fill="#ffffff" d="M 19.65625 16.183594 L 19.054688 17.523438 L 19.441406 17.140625 L 19.054688 18.484375 L 19.40625 18.132812 L 18.804688 20.292969 C 19.355469 20.042969 19.777344 19.238281 20.074219 17.882812 L 19.761719 17.882812 L 20.113281 16.683594 L 19.726562 17.066406 L 19.65625 16.183594 " fill-opacity="1" fill-rule="evenodd"/><path fill="#ffffff" d="M 14.339844 4.746094 C 12.472656 5.28125 11.273438 6.351562 10.9375 9.050781 C 11.660156 9.238281 12.660156 9.328125 13.941406 9.324219 L 13.941406 8.738281 L 13.253906 8.550781 C 13.503906 6.964844 14.816406 6.410156 17.1875 6.882812 C 16.390625 5.539062 15.441406 4.824219 14.339844 4.746094 " fill-opacity="1" fill-rule="evenodd"/><path fill="#ffffff" d="M 20.566406 8.675781 L 20.566406 9.386719 L 22.234375 9.019531 C 21.992188 8.671875 21.4375 8.558594 20.566406 8.675781 " fill-opacity="1" fill-rule="evenodd"/><path fill="#ffffff" d="M 15.316406 7.121094 L 15.316406 7.605469 L 14.660156 7.253906 L 14.875 7.796875 L 14.132812 7.605469 L 14.441406 7.914062 L 13.875 7.996094 L 14.375 8.347656 L 14.066406 8.605469 L 16.5625 8.652344 C 16.464844 7.890625 16.050781 7.378906 15.316406 7.121094 " fill-opacity="1" fill-rule="evenodd"/><path fill="#ffffff" d="M 14.53125 9.132812 C 14.53125 9.050781 14.597656 8.980469 14.679688 8.980469 C 14.765625 8.980469 14.832031 9.050781 14.832031 9.132812 C 14.832031 9.214844 14.765625 9.285156 14.679688 9.285156 C 14.597656 9.285156 14.53125 9.214844 14.53125 9.132812 " fill-opacity="1" fill-rule="nonzero"/><path fill="#ffffff" d="M 15.207031 9.15625 C 15.207031 9.070312 15.273438 9.003906 15.359375 9.003906 C 15.441406 9.003906 15.507812 9.070312 15.507812 9.15625 C 15.507812 9.238281 15.441406 9.304688 15.359375 9.304688 C 15.273438 9.304688 15.207031 9.238281 15.207031 9.15625 " fill-opacity="1" fill-rule="nonzero"/><path fill="#ffffff" d="M 15.882812 9.1875 C 15.882812 9.097656 15.957031 9.023438 16.046875 9.023438 C 16.136719 9.023438 16.207031 9.097656 16.207031 9.1875 C 16.207031 9.277344 16.136719 9.351562 16.046875 9.351562 C 15.957031 9.351562 15.882812 9.277344 15.882812 9.1875 " fill-opacity="1" fill-rule="nonzero"/><path fill="#100720" d="M 24.714844 17.035156 L 23.691406 19.4375 L 21.347656 18.160156 L 21.34375 17.601562 L 23.472656 18.519531 L 24.714844 17.035156 " fill-opacity="1" fill-rule="evenodd"/><path fill="#100720" d="M 26.875 18.160156 L 25.769531 20.75 L 24.179688 19.644531 L 24.503906 18.761719 L 25.699219 19.609375 L 26.875 18.160156 " fill-opacity="1" fill-rule="evenodd"/><path fill="#100720" d="M 22.984375 20.109375 L 21.496094 23.011719 L 19.546875 21.703125 L 19.789062 20.992188 L 21.382812 21.839844 L 22.984375 20.109375 " fill-opacity="1" fill-rule="evenodd"/><path fill="#100720" d="M 25.074219 21.667969 L 23.726562 24.324219 L 22.136719 23.152344 L 22.414062 22.515625 L 23.65625 23.082031 L 25.074219 21.667969 " fill-opacity="1" fill-rule="evenodd"/><path fill="#100720" d="M 22.886719 24.035156 L 21.363281 26.230469 L 20.191406 25.058594 L 20.621094 24.035156 L 21.503906 24.746094 L 22.886719 24.035156 " fill-opacity="1" fill-rule="evenodd"/><path fill="#ffffff" d="M 19.953125 11.523438 C 20.628906 13.890625 20.859375 15.914062 20.65625 17.597656 L 21.785156 15.324219 C 21.652344 14.132812 21.042969 12.863281 19.953125 11.523438 " fill-opacity="1" fill-rule="evenodd"/><path fill="#ffffff" d="M 10.046875 12.921875 L 8.792969 15.542969 L 9.929688 17.382812 C 9.683594 16.246094 9.722656 14.757812 10.046875 12.921875 " fill-opacity="1" fill-rule="evenodd"/><g fill="#ffffff" fill-opacity="1"><g transform="translate(3.251414, 18.991808)"><g><path d="M 0.296875 0.675781 L 0.472656 1.082031 C 0.613281 1.40625 0.957031 1.539062 1.28125 1.394531 L 2.609375 0.816406 C 2.675781 0.785156 2.703125 0.714844 2.671875 0.648438 L 2.492188 0.230469 C 2.460938 0.164062 2.390625 0.136719 2.324219 0.167969 L 1.113281 0.695312 C 1.050781 0.722656 0.980469 0.695312 0.949219 0.628906 C 0.921875 0.566406 0.953125 0.496094 1.015625 0.46875 L 2.226562 -0.0625 C 2.289062 -0.0898438 2.316406 -0.164062 2.289062 -0.226562 L 2.105469 -0.648438 C 2.078125 -0.710938 2.007812 -0.738281 1.941406 -0.710938 L 0.613281 -0.132812 C 0.289062 0.0117188 0.152344 0.351562 0.296875 0.675781 Z M 0.296875 0.675781 "/></g></g></g><g fill="#ffffff" fill-opacity="1"><g transform="translate(4.084172, 20.949226)"><g><path d="M 0.144531 0.207031 L 0.40625 0.578125 C 0.449219 0.636719 0.523438 0.652344 0.582031 0.609375 L 1.625 -0.121094 C 1.683594 -0.164062 1.757812 -0.148438 1.796875 -0.09375 C 1.839844 -0.0351562 1.824219 0.0429688 1.769531 0.0820312 L 0.726562 0.8125 C 0.667969 0.855469 0.65625 0.929688 0.695312 0.988281 L 1.445312 2.058594 C 1.488281 2.117188 1.5625 2.128906 1.621094 2.089844 L 3.207031 0.972656 C 3.265625 0.933594 3.277344 0.855469 3.238281 0.796875 L 2.972656 0.425781 C 2.933594 0.367188 2.855469 0.351562 2.800781 0.394531 L 1.75 1.132812 C 1.691406 1.171875 1.617188 1.15625 1.574219 1.101562 C 1.535156 1.042969 1.550781 0.96875 1.605469 0.929688 L 2.65625 0.191406 C 2.714844 0.148438 2.726562 0.0742188 2.6875 0.015625 L 1.9375 -1.054688 C 1.894531 -1.113281 1.820312 -1.125 1.761719 -1.082031 L 0.175781 0.03125 C 0.117188 0.0703125 0.105469 0.148438 0.144531 0.207031 Z M 0.144531 0.207031 "/></g></g></g><g fill="#ffffff" fill-opacity="1"><g transform="translate(5.841218, 23.331957)"><g><path d="M 0.183594 0.175781 L 1.105469 1.058594 C 1.15625 1.105469 1.234375 1.105469 1.285156 1.054688 L 1.535156 0.789062 C 1.585938 0.738281 1.585938 0.660156 1.53125 0.609375 L 1.121094 0.21875 C 1.070312 0.167969 1.070312 0.0898438 1.117188 0.0429688 L 2.03125 -0.914062 C 2.078125 -0.964844 2.078125 -1.042969 2.027344 -1.089844 L 1.695312 -1.40625 C 1.644531 -1.457031 1.566406 -1.457031 1.515625 -1.402344 L 0.179688 -0.00390625 C 0.128906 0.046875 0.128906 0.125 0.183594 0.175781 Z M 0.183594 0.175781 "/></g></g></g><g fill="#ffffff" fill-opacity="1"><g transform="translate(7.233063, 24.62126)"><g><path d="M 0.199219 0.152344 L 0.566406 0.425781 C 0.621094 0.46875 0.699219 0.457031 0.742188 0.402344 L 1.910156 -1.144531 C 1.953125 -1.203125 1.941406 -1.277344 1.882812 -1.320312 L 1.519531 -1.597656 C 1.460938 -1.640625 1.386719 -1.628906 1.34375 -1.570312 L 0.175781 -0.0234375 C 0.132812 0.03125 0.144531 0.109375 0.199219 0.152344 Z M 0.199219 0.152344 "/></g></g></g><g fill="#ffffff" fill-opacity="1"><g transform="translate(8.098992, 25.355022)"><g><path d="M 0.222656 0.117188 L 0.628906 0.328125 C 0.691406 0.363281 0.765625 0.339844 0.796875 0.273438 L 1.390625 -0.855469 C 1.421875 -0.914062 1.496094 -0.9375 1.554688 -0.90625 C 1.617188 -0.875 1.640625 -0.800781 1.609375 -0.738281 L 1.019531 0.390625 C 0.984375 0.453125 1.007812 0.527344 1.070312 0.558594 L 1.476562 0.773438 C 1.539062 0.804688 1.613281 0.78125 1.648438 0.71875 L 2.238281 -0.410156 C 2.269531 -0.472656 2.34375 -0.496094 2.402344 -0.464844 C 2.46875 -0.429688 2.488281 -0.355469 2.457031 -0.296875 L 1.867188 0.835938 C 1.835938 0.898438 1.859375 0.972656 1.921875 1.003906 L 2.324219 1.214844 C 2.386719 1.25 2.460938 1.226562 2.496094 1.164062 L 3.394531 -0.554688 C 3.425781 -0.617188 3.402344 -0.691406 3.339844 -0.722656 L 2.511719 -1.15625 C 2.449219 -1.191406 2.375 -1.167969 2.339844 -1.105469 L 2.242188 -0.914062 C 2.210938 -0.855469 2.136719 -0.832031 2.074219 -0.863281 C 2.011719 -0.894531 1.988281 -0.96875 2.019531 -1.03125 L 2.121094 -1.21875 C 2.152344 -1.28125 2.128906 -1.355469 2.066406 -1.390625 L 1.238281 -1.824219 C 1.175781 -1.855469 1.101562 -1.832031 1.066406 -1.769531 L 0.167969 -0.0546875 C 0.136719 0.0117188 0.160156 0.0820312 0.222656 0.117188 Z M 0.222656 0.117188 "/></g></g></g><g fill="#ffffff" fill-opacity="1"><g transform="translate(10.83079, 26.679938)"><g><path d="M 0.238281 0.078125 L 0.671875 0.222656 C 0.742188 0.242188 0.808594 0.207031 0.832031 0.140625 L 1.4375 -1.699219 C 1.460938 -1.765625 1.425781 -1.835938 1.355469 -1.859375 L 0.921875 -2 C 0.855469 -2.023438 0.785156 -1.988281 0.765625 -1.921875 L 0.160156 -0.0820312 C 0.136719 -0.0117188 0.171875 0.0546875 0.238281 0.078125 Z M 0.238281 0.078125 "/></g></g></g><g fill="#ffffff" fill-opacity="1"><g transform="translate(11.857435, 27.042742)"><g><path d="M 0.742188 0.144531 L 1.199219 0.234375 C 1.273438 0.246094 1.328125 0.210938 1.34375 0.132812 L 1.59375 -1.167969 C 1.609375 -1.234375 1.675781 -1.277344 1.742188 -1.265625 L 1.996094 -1.214844 C 2.074219 -1.199219 2.128906 -1.238281 2.140625 -1.3125 L 2.210938 -1.675781 C 2.226562 -1.75 2.191406 -1.804688 2.117188 -1.820312 L 0.664062 -2.105469 C 0.585938 -2.121094 0.53125 -2.082031 0.519531 -2.007812 L 0.445312 -1.640625 C 0.433594 -1.566406 0.46875 -1.511719 0.542969 -1.496094 L 0.796875 -1.449219 C 0.867188 -1.433594 0.914062 -1.371094 0.898438 -1.300781 L 0.648438 -0.00390625 C 0.632812 0.0742188 0.667969 0.128906 0.742188 0.144531 Z M 0.742188 0.144531 "/></g></g></g><g fill="#ffffff" fill-opacity="1"><g transform="translate(13.985125, 27.454897)"><g><path d="M 0.25 0 L 2.078125 0.015625 C 2.152344 0.015625 2.207031 -0.0390625 2.207031 -0.109375 L 2.207031 -0.433594 C 2.210938 -0.507812 2.15625 -0.5625 2.085938 -0.5625 L 0.960938 -0.570312 C 0.894531 -0.570312 0.839844 -0.625 0.839844 -0.695312 C 0.839844 -0.761719 0.894531 -0.820312 0.964844 -0.820312 L 1.976562 -0.8125 C 2.046875 -0.8125 2.101562 -0.867188 2.101562 -0.9375 L 2.105469 -1.222656 C 2.105469 -1.296875 2.050781 -1.351562 1.980469 -1.351562 L 0.96875 -1.359375 C 0.898438 -1.359375 0.84375 -1.414062 0.84375 -1.484375 C 0.847656 -1.554688 0.902344 -1.609375 0.96875 -1.609375 L 2.089844 -1.597656 C 2.164062 -1.597656 2.21875 -1.652344 2.21875 -1.722656 L 2.222656 -2.046875 C 2.222656 -2.117188 2.167969 -2.171875 2.097656 -2.171875 L 0.269531 -2.1875 C 0.195312 -2.1875 0.140625 -2.132812 0.140625 -2.0625 L 0.125 -0.125 C 0.125 -0.0546875 0.179688 0 0.25 0 Z M 0.25 0 "/></g></g></g><g fill="#ffffff" fill-opacity="1"><g transform="translate(16.499436, 27.4378)"><g><path d="M 0.246094 -0.0429688 L 1.160156 -0.203125 C 1.511719 -0.265625 1.71875 -0.566406 1.660156 -0.917969 L 1.492188 -1.863281 C 1.429688 -2.214844 1.132812 -2.421875 0.78125 -2.359375 L -0.132812 -2.199219 C -0.203125 -2.1875 -0.246094 -2.125 -0.234375 -2.054688 L 0.101562 -0.144531 C 0.113281 -0.0742188 0.179688 -0.03125 0.246094 -0.0429688 Z M 0.84375 -0.722656 C 0.777344 -0.710938 0.714844 -0.753906 0.703125 -0.820312 L 0.5625 -1.625 C 0.550781 -1.695312 0.59375 -1.757812 0.660156 -1.769531 C 0.730469 -1.78125 0.792969 -1.738281 0.804688 -1.667969 L 0.949219 -0.863281 C 0.960938 -0.796875 0.914062 -0.734375 0.84375 -0.722656 Z M 0.84375 -0.722656 "/></g></g></g></svg>