<svg xmlns="http://www.w3.org/2000/svg" xmlns:xlink="http://www.w3.org/1999/xlink" width="500" zoomAndPan="magnify" viewBox="0 0 375 374.999991" height="500" preserveAspectRatio="xMidYMid meet" version="1.0"><defs><g/><clipPath id="fee0adcb64"><path d="M 187.5 0 C 83.945312 0 0 83.945312 0 187.5 C 0 291.054688 83.945312 375 187.5 375 C 291.054688 375 375 291.054688 375 187.5 C 375 83.945312 291.054688 0 187.5 0 " clip-rule="nonzero"/></clipPath><clipPath id="514b11d3ab"><path d="M 12.949219 12.949219 L 361.34375 12.949219 L 361.34375 361.34375 L 12.949219 361.34375 Z M 12.949219 12.949219 " clip-rule="nonzero"/></clipPath><clipPath id="c031c376f4"><path d="M 16.101562 43.238281 L 360.648438 43.238281 L 360.648438 361.34375 L 16.101562 361.34375 Z M 16.101562 43.238281 " clip-rule="nonzero"/></clipPath></defs><g clip-path="url(#fee0adcb64)"><rect x="-37.5" width="450" fill="#ffffff" y="-37.499999" height="449.999989" fill-opacity="1"/></g><g clip-path="url(#514b11d3ab)"><path fill="#ffc23c" d="M 12.949219 187.160156 C 12.949219 90.945312 90.945312 12.949219 187.160156 12.949219 C 283.378906 12.949219 361.378906 90.945312 361.378906 187.160156 C 361.378906 283.378906 283.378906 361.375 187.160156 361.375 C 90.945312 361.375 12.949219 283.378906 12.949219 187.160156 " fill-opacity="1" fill-rule="nonzero"/></g><g clip-path="url(#c031c376f4)"><path fill="#100720" d="M 16.25 221.09375 L 17.382812 220.4375 C 32.867188 206.859375 60.148438 196.207031 99.230469 188.484375 L 108.125 169.164062 C 93.703125 158.992188 107.644531 123.792969 122.511719 124.574219 L 125.84375 106.042969 C 130.601562 66.363281 153.609375 45.535156 194.863281 43.550781 C 225.347656 44.097656 247.640625 62.433594 261.738281 98.558594 C 289.648438 96.722656 295.878906 105.601562 294.648438 115.308594 L 262.695312 123.386719 L 268.582031 134.832031 C 282.636719 132.28125 291.835938 153.695312 285.382812 170.546875 L 292.867188 183.734375 C 309.515625 185.84375 330.398438 193.457031 360.027344 208.953125 C 349.304688 294.882812 276 361.375 187.160156 361.375 C 102.554688 361.375 32.039062 301.070312 16.25 221.09375 " fill-opacity="1" fill-rule="nonzero"/></g><path fill="#ffffff" d="M 290.855469 194.304688 C 313.726562 200.277344 334.011719 209.894531 351.703125 223.15625 C 343.621094 250.046875 331.523438 277.351562 315.414062 305.070312 C 302.75 318.839844 287.898438 330.5625 271.40625 339.6875 L 243.246094 295.910156 C 257.265625 282.078125 273.136719 248.210938 290.855469 194.304688 " fill-opacity="1" fill-rule="nonzero"/><path fill="#ffffff" d="M 187.675781 133.851562 L 177.09375 123.117188 L 202.164062 124.113281 L 196.210938 135.390625 C 207.730469 125.984375 219.691406 123.539062 239.554688 126.527344 C 243.578125 129.679688 243.582031 139.757812 243.996094 144.363281 C 253.441406 148.917969 248.0625 181.242188 229.355469 184.675781 L 238.308594 195.230469 C 242.441406 203.25 242.441406 210.5625 238.308594 217.171875 L 220.355469 184.363281 C 224.316406 182.871094 227.554688 181.742188 230.074219 180.984375 L 215.519531 178.25 L 198.6875 168.566406 L 189.453125 174.621094 L 182.699219 167.871094 L 173.207031 170.410156 L 180.480469 158.898438 C 185.738281 156.425781 192.136719 156.5625 199.667969 159.304688 C 210.414062 166.898438 226.667969 170.664062 240.082031 166.097656 C 239.53125 156.847656 236.203125 150.777344 230.097656 147.882812 L 220.011719 151.003906 C 219.757812 146.773438 236.53125 136.515625 236.53125 136.515625 C 227.339844 136.8125 219.109375 139.804688 211.832031 145.488281 L 213.703125 136.070312 C 207.550781 139.265625 202.015625 144.800781 197.09375 152.683594 C 190.441406 150.136719 185.25 150.007812 181.523438 152.292969 C 176.765625 141.625 174.421875 136.328125 169.289062 135.628906 L 171.507812 145.933594 C 159.382812 134.304688 149.820312 130.425781 142.8125 134.292969 C 154.0625 138.195312 159.75 142.664062 159.871094 147.707031 L 152.53125 144.246094 C 143.289062 155.109375 142.957031 162.558594 144.683594 166.539062 L 168.207031 163.621094 C 164.476562 167.019531 159.925781 168.746094 154.554688 168.796875 C 156.074219 170.242188 159.195312 170.699219 163.90625 170.164062 L 161.203125 173.292969 L 145.398438 176.429688 C 146.667969 179.746094 150.027344 181.488281 155.476562 181.652344 C 144.917969 205.960938 144.695312 219.210938 152.230469 227.472656 C 184.703125 205.886719 219.820312 208.554688 237.863281 238.1875 L 224.007812 258.386719 L 196.203125 264.25 L 137.933594 234.226562 L 135.523438 222.402344 C 133.144531 206.421875 140.664062 189.101562 147.410156 181.90625 C 136.269531 169.644531 128.726562 160.503906 139.265625 140.714844 C 138.09375 131.761719 137.339844 124.308594 141.445312 121.421875 C 158.582031 120.585938 171.058594 123.125 187.675781 133.851562 " fill-opacity="1" fill-rule="evenodd"/><path fill="#ffffff" d="M 180.886719 171.035156 L 167.972656 176.632812 L 162.65625 185.191406 L 174.652344 195.625 L 161.164062 192.511719 C 150.367188 200.925781 151.480469 212.675781 151.886719 227.085938 C 170.71875 203.609375 207.035156 198.75 228.628906 225.519531 C 229.757812 219.398438 227.71875 210.683594 222.507812 199.367188 L 212.335938 192.511719 L 199.980469 196.25 L 210.925781 184.851562 L 208.90625 178.714844 L 198.15625 172.613281 L 187.941406 179.023438 L 180.886719 171.035156 " fill-opacity="1" fill-rule="evenodd"/><path fill="#100720" d="M 171.960938 224.585938 C 183.992188 221.675781 193.957031 221.675781 201.851562 224.585938 C 206.828125 227.9375 209.488281 231.226562 209.84375 234.445312 C 210.074219 240.449219 206.785156 243.734375 199.980469 244.304688 C 201.222656 239.011719 199.769531 234.308594 195.617188 230.195312 C 180.554688 229.421875 172.667969 227.550781 171.960938 224.585938 " fill-opacity="1" fill-rule="evenodd"/><path fill="#100720" d="M 186.144531 189.195312 L 177.046875 181.609375 C 173.230469 180.925781 170.425781 183.351562 170.980469 186.464844 L 175.804688 190.226562 L 178.703125 187.324219 L 186.285156 192.003906 L 190.84375 189.1875 L 196.972656 191.054688 L 202.152344 185.875 L 197.59375 181.316406 L 186.144531 189.195312 " fill-opacity="1" fill-rule="evenodd"/><path fill="#100720" d="M 197.386719 163.667969 L 188.800781 171.019531 L 179.652344 163.421875 C 182.042969 164.378906 184.527344 163.894531 188.5625 166.984375 C 190.828125 164.472656 193.769531 163.367188 197.386719 163.667969 " fill-opacity="1" fill-rule="evenodd"/><path fill="#ffffff" d="M 170.746094 157.664062 L 156.339844 153.019531 C 152.777344 155.039062 152.65625 156.550781 152.34375 159.941406 L 170.746094 157.664062 " fill-opacity="1" fill-rule="evenodd"/><path fill="#ffffff" d="M 222.417969 154.082031 L 208.574219 159.4375 L 226.636719 161.847656 C 227.460938 158.003906 226.054688 155.414062 222.417969 154.082031 " fill-opacity="1" fill-rule="evenodd"/><path fill="#ffffff" d="M 269.335938 144.84375 C 276.609375 144.015625 279.542969 151.738281 278.132812 168.019531 L 269.335938 144.84375 " fill-opacity="1" fill-rule="evenodd"/><path fill="#100720" d="M 196.480469 158.277344 L 206.5625 174.085938 L 212.421875 177.671875 L 199.429688 158.128906 L 196.480469 158.277344 " fill-opacity="1" fill-rule="evenodd"/><path fill="#100720" d="M 203.015625 167.105469 C 207.539062 170.402344 212.246094 171.96875 217.136719 171.8125 C 211.457031 167.144531 208.105469 163.050781 207.078125 159.539062 L 199.429688 158.128906 L 200.234375 164.164062 L 203.015625 167.105469 " fill-opacity="1" fill-rule="evenodd"/><path fill="#100720" d="M 189.039062 142.152344 L 186.1875 152.011719 L 192.839844 152.847656 Z M 189.039062 142.152344 " fill-opacity="1" fill-rule="evenodd"/><path fill="#ffffff" d="M 123.578125 137.878906 C 117.117188 132.597656 108.734375 149.398438 113.957031 163.65625 L 123.578125 137.878906 " fill-opacity="1" fill-rule="evenodd"/><path fill="#100720" d="M 190.976562 197.046875 C 193.640625 200.625 195.136719 203.460938 195.472656 205.546875 L 188.402344 205.304688 L 190.714844 202.675781 L 190.976562 197.046875 " fill-opacity="1" fill-rule="evenodd"/><path fill="#100720" d="M 196.492188 195.757812 C 188.140625 200.984375 182.210938 200.714844 178.703125 194.957031 C 182.101562 196.460938 188.035156 196.730469 196.492188 195.757812 " fill-opacity="1" fill-rule="evenodd"/><path fill="#ffffff" d="M 249.621094 204.523438 L 241.664062 222.34375 L 246.773438 217.230469 L 241.664062 235.054688 L 246.300781 230.417969 L 238.335938 259.046875 C 245.628906 255.726562 251.25 245.074219 255.207031 227.09375 L 251.046875 227.09375 L 255.683594 211.171875 L 250.574219 216.28125 L 249.621094 204.523438 " fill-opacity="1" fill-rule="evenodd"/><path fill="#ffffff" d="M 179.117188 52.804688 C 154.34375 59.894531 138.4375 74.101562 133.960938 109.894531 C 143.546875 112.394531 156.832031 113.609375 173.8125 113.542969 L 173.8125 105.753906 L 164.703125 103.269531 C 168.042969 82.238281 185.441406 74.863281 216.902344 81.140625 C 206.300781 63.304688 193.707031 53.859375 179.117188 52.804688 " fill-opacity="1" fill-rule="evenodd"/><path fill="#ffffff" d="M 261.722656 104.925781 L 261.722656 114.371094 L 283.851562 109.480469 C 280.652344 104.886719 273.277344 103.367188 261.722656 104.925781 " fill-opacity="1" fill-rule="evenodd"/><path fill="#ffffff" d="M 192.070312 84.300781 L 192.070312 90.734375 L 183.378906 86.058594 L 186.226562 93.285156 L 176.363281 90.734375 L 180.457031 94.828125 L 172.9375 95.917969 L 179.582031 100.59375 L 175.488281 104.023438 L 208.574219 104.605469 C 207.316406 94.5 201.820312 87.730469 192.070312 84.300781 " fill-opacity="1" fill-rule="evenodd"/><path fill="#ffffff" d="M 181.628906 111 C 181.628906 109.890625 182.523438 108.992188 183.632812 108.992188 C 184.742188 108.992188 185.640625 109.890625 185.640625 111 C 185.640625 112.109375 184.742188 113.003906 183.632812 113.003906 C 182.523438 113.003906 181.628906 112.109375 181.628906 111 " fill-opacity="1" fill-rule="nonzero"/><path fill="#ffffff" d="M 190.609375 111.292969 C 190.609375 110.183594 191.507812 109.285156 192.617188 109.285156 C 193.722656 109.285156 194.625 110.183594 194.625 111.292969 C 194.625 112.402344 193.722656 113.296875 192.617188 113.296875 C 191.507812 113.296875 190.609375 112.402344 190.609375 111.292969 " fill-opacity="1" fill-rule="nonzero"/><path fill="#ffffff" d="M 199.59375 111.730469 C 199.59375 110.539062 200.554688 109.578125 201.746094 109.578125 C 202.933594 109.578125 203.898438 110.539062 203.898438 111.730469 C 203.898438 112.917969 202.933594 113.882812 201.746094 113.882812 C 200.554688 113.882812 199.59375 112.917969 199.59375 111.730469 " fill-opacity="1" fill-rule="nonzero"/><path fill="#100720" d="M 316.742188 215.820312 L 303.1875 247.710938 L 272.0625 230.761719 L 272.054688 223.367188 L 300.257812 235.539062 L 316.742188 215.820312 " fill-opacity="1" fill-rule="evenodd"/><path fill="#100720" d="M 345.398438 230.761719 L 330.761719 265.121094 L 309.65625 250.480469 L 313.972656 238.773438 L 329.835938 250.019531 L 345.398438 230.761719 " fill-opacity="1" fill-rule="evenodd"/><path fill="#100720" d="M 293.789062 256.648438 L 274.070312 295.164062 L 248.183594 277.753906 L 251.417969 268.355469 L 272.527344 279.601562 L 293.789062 256.648438 " fill-opacity="1" fill-rule="evenodd"/><path fill="#100720" d="M 321.519531 277.292969 L 303.648438 312.574219 L 282.542969 297.007812 L 286.238281 288.535156 L 302.726562 296.085938 L 321.519531 277.292969 " fill-opacity="1" fill-rule="evenodd"/><path fill="#100720" d="M 292.480469 308.738281 L 272.300781 337.855469 L 256.738281 322.296875 L 262.441406 308.738281 L 274.148438 318.136719 L 292.480469 308.738281 " fill-opacity="1" fill-rule="evenodd"/><path fill="#ffffff" d="M 253.59375 142.703125 C 262.519531 174.105469 265.617188 200.96875 262.882812 223.292969 L 277.875 193.144531 C 276.109375 177.332031 268.015625 160.515625 253.59375 142.703125 " fill-opacity="1" fill-rule="evenodd"/><path fill="#ffffff" d="M 122.148438 161.292969 L 105.511719 196.039062 L 120.585938 220.453125 C 117.324219 205.351562 117.847656 185.632812 122.148438 161.292969 " fill-opacity="1" fill-rule="evenodd"/><g fill="#ffffff" fill-opacity="1"><g transform="translate(31.941385, 241.030257)"><g><path d="M 3.914062 8.949219 L 6.25 14.289062 C 8.132812 18.597656 12.644531 20.335938 16.957031 18.453125 L 34.492188 10.78125 C 35.355469 10.40625 35.726562 9.453125 35.351562 8.589844 L 32.929688 3.054688 C 32.550781 2.191406 31.601562 1.820312 30.738281 2.195312 L 14.726562 9.199219 C 13.898438 9.5625 12.945312 9.1875 12.566406 8.328125 C 12.203125 7.496094 12.578125 6.542969 13.40625 6.183594 L 29.417969 -0.820312 C 30.28125 -1.195312 30.652344 -2.148438 30.277344 -3.011719 L 27.855469 -8.546875 C 27.476562 -9.410156 26.527344 -9.785156 25.664062 -9.40625 L 8.125 -1.738281 C 3.816406 0.148438 2.03125 4.640625 3.914062 8.949219 Z M 3.914062 8.949219 "/></g></g></g><g fill="#ffffff" fill-opacity="1"><g transform="translate(42.952249, 266.911572)"><g><path d="M 1.914062 2.722656 L 5.390625 7.667969 C 5.929688 8.4375 6.9375 8.613281 7.707031 8.070312 L 21.503906 -1.625 C 22.242188 -2.148438 23.25 -1.972656 23.769531 -1.230469 C 24.3125 -0.460938 24.136719 0.546875 23.394531 1.066406 L 9.601562 10.765625 C 8.832031 11.304688 8.65625 12.3125 9.199219 13.082031 L 19.125 27.203125 C 19.664062 27.972656 20.671875 28.148438 21.441406 27.605469 L 42.402344 12.875 C 43.171875 12.332031 43.347656 11.324219 42.804688 10.554688 L 39.328125 5.613281 C 38.789062 4.839844 37.78125 4.664062 37.011719 5.207031 L 23.128906 14.96875 C 22.386719 15.488281 21.378906 15.3125 20.839844 14.542969 C 20.320312 13.800781 20.496094 12.792969 21.234375 12.273438 L 35.117188 2.511719 C 35.917969 1.953125 36.0625 0.964844 35.519531 0.195312 L 25.59375 -13.925781 C 25.054688 -14.695312 24.046875 -14.871094 23.277344 -14.328125 L 2.320312 0.40625 C 1.550781 0.945312 1.375 1.953125 1.914062 2.722656 Z M 1.914062 2.722656 "/></g></g></g><g fill="#ffffff" fill-opacity="1"><g transform="translate(66.184245, 298.416482)"><g><path d="M 2.40625 2.300781 L 14.613281 13.984375 C 15.292969 14.632812 16.316406 14.613281 16.96875 13.933594 L 20.320312 10.429688 C 20.96875 9.75 20.945312 8.726562 20.265625 8.074219 L 14.828125 2.871094 C 14.148438 2.222656 14.128906 1.199219 14.753906 0.546875 L 26.835938 -12.082031 C 27.484375 -12.761719 27.464844 -13.785156 26.785156 -14.433594 L 22.417969 -18.613281 C 21.738281 -19.261719 20.714844 -19.242188 20.066406 -18.5625 L 2.351562 -0.0507812 C 1.703125 0.628906 1.726562 1.652344 2.40625 2.300781 Z M 2.40625 2.300781 "/></g></g></g><g fill="#ffffff" fill-opacity="1"><g transform="translate(84.587458, 315.463908)"><g><path d="M 2.65625 2.003906 L 7.484375 5.640625 C 8.234375 6.207031 9.246094 6.066406 9.8125 5.316406 L 25.238281 -15.140625 C 25.804688 -15.890625 25.660156 -16.90625 24.910156 -17.472656 L 20.085938 -21.109375 C 19.332031 -21.675781 18.320312 -21.535156 17.753906 -20.78125 L 2.332031 -0.328125 C 1.765625 0.425781 1.90625 1.4375 2.65625 2.003906 Z M 2.65625 2.003906 "/></g></g></g><g fill="#ffffff" fill-opacity="1"><g transform="translate(96.036921, 325.165823)"><g><path d="M 2.949219 1.542969 L 8.304688 4.34375 C 9.136719 4.777344 10.113281 4.472656 10.550781 3.640625 L 18.363281 -11.300781 C 18.785156 -12.105469 19.761719 -12.410156 20.5625 -11.992188 C 21.394531 -11.554688 21.703125 -10.578125 21.28125 -9.777344 L 13.46875 5.164062 C 13.03125 6 13.339844 6.976562 14.171875 7.410156 L 19.527344 10.210938 C 20.359375 10.648438 21.355469 10.308594 21.773438 9.507812 L 29.585938 -5.433594 C 30.007812 -6.234375 30.984375 -6.539062 31.785156 -6.121094 C 32.617188 -5.6875 32.925781 -4.710938 32.503906 -3.90625 L 24.691406 11.035156 C 24.253906 11.867188 24.5625 12.84375 25.394531 13.28125 L 30.75 16.082031 C 31.582031 16.515625 32.558594 16.210938 32.996094 15.378906 L 44.867188 -7.324219 C 45.304688 -8.15625 44.996094 -9.132812 44.164062 -9.570312 L 33.199219 -15.304688 C 32.363281 -15.742188 31.386719 -15.433594 30.953125 -14.601562 L 29.644531 -12.101562 C 29.222656 -11.300781 28.246094 -10.992188 27.414062 -11.429688 C 26.613281 -11.847656 26.304688 -12.824219 26.726562 -13.625 L 28.035156 -16.128906 C 28.46875 -16.960938 28.164062 -17.9375 27.328125 -18.375 L 16.363281 -24.109375 C 15.53125 -24.542969 14.554688 -24.238281 14.117188 -23.40625 L 2.246094 -0.703125 C 1.808594 0.128906 2.117188 1.105469 2.949219 1.542969 Z M 2.949219 1.542969 "/></g></g></g><g fill="#ffffff" fill-opacity="1"><g transform="translate(132.157277, 342.684103)"><g><path d="M 3.164062 1.039062 L 8.902344 2.925781 C 9.796875 3.222656 10.710938 2.757812 11.003906 1.867188 L 19.003906 -22.46875 C 19.300781 -23.363281 18.835938 -24.277344 17.945312 -24.570312 L 12.203125 -26.457031 C 11.308594 -26.753906 10.394531 -26.292969 10.101562 -25.398438 L 2.101562 -1.0625 C 1.808594 -0.167969 2.269531 0.746094 3.164062 1.039062 Z M 3.164062 1.039062 "/></g></g></g><g fill="#ffffff" fill-opacity="1"><g transform="translate(145.731742, 347.481178)"><g><path d="M 9.839844 1.910156 L 15.839844 3.078125 C 16.835938 3.269531 17.558594 2.785156 17.757812 1.753906 L 21.097656 -15.4375 C 21.269531 -16.324219 22.152344 -16.890625 23.042969 -16.71875 L 26.414062 -16.0625 C 27.410156 -15.871094 28.132812 -16.355469 28.324219 -17.351562 L 29.257812 -22.144531 C 29.449219 -23.140625 28.960938 -23.863281 27.96875 -24.054688 L 8.757812 -27.824219 C 7.730469 -28.023438 7.042969 -27.53125 6.851562 -26.535156 L 5.910156 -21.703125 C 5.71875 -20.710938 6.207031 -19.988281 7.199219 -19.796875 L 10.539062 -19.148438 C 11.460938 -18.96875 12.070312 -18.113281 11.898438 -17.222656 L 8.558594 -0.03125 C 8.359375 0.996094 8.84375 1.71875 9.839844 1.910156 Z M 9.839844 1.910156 "/></g></g></g><g fill="#ffffff" fill-opacity="1"><g transform="translate(173.864432, 352.930783)"><g><path d="M 3.328125 0.0234375 L 27.5 0.203125 C 28.4375 0.210938 29.167969 -0.507812 29.175781 -1.449219 L 29.207031 -5.753906 C 29.214844 -6.695312 28.496094 -7.421875 27.554688 -7.429688 L 12.71875 -7.539062 C 11.816406 -7.546875 11.097656 -8.277344 11.105469 -9.179688 C 11.109375 -10.085938 11.839844 -10.839844 12.746094 -10.832031 L 26.132812 -10.734375 C 27.074219 -10.726562 27.800781 -11.445312 27.808594 -12.386719 L 27.835938 -16.183594 C 27.84375 -17.125 27.125 -17.855469 26.183594 -17.863281 L 12.796875 -17.960938 C 11.894531 -17.96875 11.175781 -18.695312 11.179688 -19.601562 C 11.1875 -20.542969 11.917969 -21.261719 12.820312 -21.253906 L 27.65625 -21.144531 C 28.597656 -21.136719 29.328125 -21.855469 29.332031 -22.796875 L 29.367188 -27.066406 C 29.371094 -28.007812 28.652344 -28.734375 27.714844 -28.742188 L 3.542969 -28.921875 C 2.601562 -28.929688 1.875 -28.210938 1.867188 -27.269531 L 1.675781 -1.652344 C 1.667969 -0.710938 2.386719 0.0195312 3.328125 0.0234375 Z M 3.328125 0.0234375 "/></g></g></g><g fill="#ffffff" fill-opacity="1"><g transform="translate(207.109132, 352.704686)"><g><path d="M 3.277344 -0.578125 L 15.359375 -2.707031 C 19.992188 -3.523438 22.742188 -7.5 21.925781 -12.132812 L 19.722656 -24.640625 C 18.90625 -29.273438 14.964844 -32.03125 10.332031 -31.214844 L -1.746094 -29.085938 C -2.671875 -28.921875 -3.261719 -28.082031 -3.097656 -27.15625 L 1.351562 -1.929688 C 1.511719 -1 2.351562 -0.414062 3.277344 -0.578125 Z M 11.179688 -9.539062 C 10.289062 -9.382812 9.449219 -9.96875 9.292969 -10.859375 L 7.421875 -21.480469 C 7.257812 -22.40625 7.84375 -23.242188 8.734375 -23.402344 C 9.660156 -23.5625 10.5 -22.976562 10.664062 -22.050781 L 12.535156 -11.429688 C 12.691406 -10.539062 12.105469 -9.703125 11.179688 -9.539062 Z M 11.179688 -9.539062 "/></g></g></g></svg>